<?xml version="1.0" encoding="utf-8"?>
<!-- Generator: Adobe Illustrator 24.3.0, SVG Export Plug-In . SVG Version: 6.00 Build 0)  -->
<svg version="1.1" xmlns="http://www.w3.org/2000/svg" xmlns:xlink="http://www.w3.org/1999/xlink" x="0px" y="0px"
	 viewBox="0 0 1975.19 475" style="enable-background:new 0 0 1975.19 475;" xml:space="preserve">
<style type="text/css">
	.st0{fill:#FFFFFF;}
	.st1{fill-rule:evenodd;clip-rule:evenodd;fill:url(#SVGID_1_);}
	.st2{fill-rule:evenodd;clip-rule:evenodd;fill:url(#SVGID_2_);}
</style>
<g id="Layer_6">
	<g>
		<path class="st0" d="M519.85,202.48c7-12.9,16.7-22.9,29.1-30c12.4-7.1,26.6-10.65,42.6-10.65c20.6,0,37.65,5.15,51.15,15.45
			c13.5,10.3,22.55,24.75,27.15,43.35h-45.3c-2.4-7.2-6.45-12.85-12.15-16.95c-5.7-4.1-12.75-6.15-21.15-6.15
			c-12,0-21.5,4.35-28.5,13.05c-7,8.7-10.5,21.05-10.5,37.05c0,15.8,3.5,28.05,10.5,36.75c7,8.7,16.5,13.05,28.5,13.05
			c17,0,28.1-7.6,33.3-22.8h45.3c-4.6,18-13.7,32.3-27.3,42.9c-13.6,10.6-30.6,15.9-51,15.9c-16,0-30.2-3.55-42.6-10.65
			c-12.4-7.1-22.1-17.1-29.1-30c-7-12.9-10.5-27.95-10.5-45.15C509.35,230.43,512.85,215.38,519.85,202.48z"/>
		<path class="st0" d="M827.95,170.38c9.8,5.5,17.45,13.6,22.95,24.3c5.5,10.7,8.25,23.55,8.25,38.55v97.5h-42v-91.8
			c0-13.2-3.3-23.35-9.9-30.45c-6.6-7.1-15.6-10.65-27-10.65c-11.6,0-20.75,3.55-27.45,10.65c-6.7,7.1-10.05,17.25-10.05,30.45v91.8
			h-42v-222h42v76.5c5.4-7.2,12.6-12.85,21.6-16.95c9-4.1,19-6.15,30-6.15C806.95,162.13,818.15,164.88,827.95,170.38z"/>
		<path class="st0" d="M1052.35,260.23h-121.5c1,12,5.2,21.4,12.6,28.2c7.4,6.8,16.5,10.2,27.3,10.2c15.6,0,26.7-6.7,33.3-20.1h45.3
			c-4.8,16-14,29.15-27.6,39.45c-13.6,10.3-30.3,15.45-50.1,15.45c-16,0-30.35-3.55-43.05-10.65c-12.7-7.1-22.6-17.15-29.7-30.15
			c-7.1-13-10.65-28-10.65-45c0-17.2,3.5-32.3,10.5-45.3c7-13,16.8-23,29.4-30c12.6-7,27.1-10.5,43.5-10.5
			c15.8,0,29.95,3.4,42.45,10.2c12.5,6.8,22.2,16.45,29.1,28.95c6.9,12.5,10.35,26.85,10.35,43.05
			C1053.55,250.03,1053.14,255.43,1052.35,260.23z M1010.05,232.03c-0.2-10.8-4.1-19.45-11.7-25.95c-7.6-6.5-16.9-9.75-27.9-9.75
			c-10.4,0-19.15,3.15-26.25,9.45c-7.1,6.3-11.45,15.05-13.05,26.25H1010.05z"/>
		<path class="st0" d="M1083.84,202.48c7-12.9,16.7-22.9,29.1-30c12.4-7.1,26.6-10.65,42.6-10.65c20.6,0,37.65,5.15,51.15,15.45
			c13.5,10.3,22.55,24.75,27.15,43.35h-45.3c-2.4-7.2-6.45-12.85-12.15-16.95c-5.7-4.1-12.75-6.15-21.15-6.15
			c-12,0-21.5,4.35-28.5,13.05c-7,8.7-10.5,21.05-10.5,37.05c0,15.8,3.5,28.05,10.5,36.75c7,8.7,16.5,13.05,28.5,13.05
			c17,0,28.1-7.6,33.3-22.8h45.3c-4.6,18-13.7,32.3-27.3,42.9c-13.6,10.6-30.6,15.9-51,15.9c-16,0-30.2-3.55-42.6-10.65
			c-12.4-7.1-22.1-17.1-29.1-30c-7-12.9-10.5-27.95-10.5-45.15C1073.34,230.43,1076.84,215.38,1083.84,202.48z"/>
		<path class="st0" d="M1363.14,330.73l-56.4-70.8v70.8h-42v-222h42v126.3l55.8-70.5h54.6l-73.2,83.4l73.8,82.8H1363.14z"/>
		<path class="st0" d="M1504.29,169.33c9.5-5,20.35-7.5,32.55-7.5c14.2,0,27.05,3.5,38.55,10.5c11.5,7,20.6,16.95,27.3,29.85
			c6.7,12.9,10.05,27.85,10.05,44.85c0,17-3.35,32.05-10.05,45.15c-6.7,13.1-15.8,23.25-27.3,30.45c-11.5,7.2-24.35,10.8-38.55,10.8
			c-12.4,0-23.25-2.45-32.55-7.35s-16.75-11.25-22.35-19.05v23.7h-42v-222h42v80.1C1487.34,180.83,1494.79,174.33,1504.29,169.33z
			 M1563.69,221.08c-4.1-7.3-9.5-12.85-16.2-16.65c-6.7-3.8-13.95-5.7-21.75-5.7c-7.6,0-14.75,1.95-21.45,5.85
			c-6.7,3.9-12.1,9.55-16.2,16.95c-4.1,7.4-6.15,16.1-6.15,26.1c0,10,2.05,18.7,6.15,26.1c4.1,7.4,9.5,13.05,16.2,16.95
			c6.7,3.9,13.85,5.85,21.45,5.85c7.8,0,15.05-2,21.75-6c6.7-4,12.1-9.7,16.2-17.1c4.1-7.4,6.15-16.2,6.15-26.4
			C1569.84,237.03,1567.79,228.38,1563.69,221.08z"/>
		<path class="st0" d="M1673.94,322.78c-12.8-7.1-22.85-17.15-30.15-30.15c-7.3-13-10.95-28-10.95-45c0-17,3.75-32,11.25-45
			c7.5-13,17.75-23.05,30.75-30.15c13-7.1,27.5-10.65,43.5-10.65c16,0,30.5,3.55,43.5,10.65c13,7.1,23.25,17.15,30.75,30.15
			c7.5,13,11.25,28,11.25,45c0,17-3.85,32-11.55,45c-7.7,13-18.1,23.05-31.2,30.15c-13.1,7.1-27.75,10.65-43.95,10.65
			C1701.14,333.43,1686.74,329.88,1673.94,322.78z M1738.59,291.28c6.7-3.7,12.05-9.25,16.05-16.65c4-7.4,6-16.4,6-27
			c0-15.8-4.15-27.95-12.45-36.45c-8.3-8.5-18.45-12.75-30.45-12.75s-22.05,4.25-30.15,12.75c-8.1,8.5-12.15,20.65-12.15,36.45
			c0,15.8,3.95,27.95,11.85,36.45c7.9,8.5,17.85,12.75,29.85,12.75C1724.74,296.83,1731.89,294.98,1738.59,291.28z"/>
		<path class="st0" d="M1926.53,330.73l-34.2-51.6l-30.3,51.6h-45l54.3-83.4l-54.9-82.8h47.4l33.9,51.3l30.6-51.3h45l-54.6,82.8
			l55.2,83.4H1926.53z"/>
	</g>
</g>
<g id="Layer_8">
	<g>
		<linearGradient id="SVGID_1_" gradientUnits="userSpaceOnUse" x1="4.6072" y1="351.7876" x2="402.1072" y2="122.2908">
			<stop  offset="0" style="stop-color:#5BEFA0"/>
			<stop  offset="0.5" style="stop-color:#1BDA9D"/>
			<stop  offset="1" style="stop-color:#17BA86"/>
		</linearGradient>
		<path class="st1" d="M204.02,237.55l57-32.91v-0.17l54.53-31.48c-1.28-2.4-3.22-4.44-5.66-5.85l-99.93-57.56
			c-2.29-1.33-4.85-1.99-7.4-1.99c-2.55,0-5.11,0.66-7.4,1.99l-99.93,57.56c-0.75,0.43-1.46,0.93-2.11,1.47
			c-3.32,2.78-5.3,6.91-5.3,11.33v115.11c0,5.3,2.83,10.17,7.41,12.81l99.93,57.58c2.29,1.32,4.85,1.98,7.4,1.98
			c2.55,0,5.11-0.66,7.4-1.98l99.93-57.58c4.58-2.64,7.41-7.51,7.41-12.81v-72.72l-56.28,32.5V255l-57,32.91v0l-57-32.91v-50.36
			L204.02,237.55z"/>
		<linearGradient id="SVGID_2_" gradientUnits="userSpaceOnUse" x1="4.8702" y1="352.2433" x2="402.3599" y2="122.7525">
			<stop  offset="0" style="stop-color:#5BEFA0"/>
			<stop  offset="0.5" style="stop-color:#1BDA9D"/>
			<stop  offset="1" style="stop-color:#17BA86"/>
		</linearGradient>
		<path class="st2" d="M362.21,196.14v120.25c0,7.27-3.89,13.97-10.18,17.59l-137.21,79.06c-3.15,1.81-6.65,2.71-10.16,2.71
			c-3.51,0-7.01-0.91-10.16-2.71L57.29,333.97c-6.29-3.62-10.18-10.32-10.18-17.59V158.33c0-6.08,2.71-11.75,7.28-15.56
			c0.9-0.75,1.87-1.43,2.9-2.02L194.5,61.72c3.15-1.83,6.65-2.74,10.16-2.74c3.51,0,7.02,0.91,10.16,2.74l137.21,79.03
			c2.98,1.71,5.41,4.12,7.15,6.95c14.38-8.33,28.76-16.67,43.14-25c-2.25-3.79-5.46-7.01-9.41-9.29L216.67,11.9
			c-4.04-2.35-8.55-3.52-13.05-3.52c-4.5,0-9.01,1.17-13.05,3.52L14.33,113.4c-1.33,0.76-2.58,1.64-3.73,2.6
			c-5.86,4.9-9.34,12.18-9.34,19.99V339c0,9.34,4.99,17.94,13.07,22.59l176.24,101.54c4.04,2.32,8.55,3.49,13.05,3.49
			c4.51,0,9.01-1.16,13.05-3.49l176.24-101.54c8.08-4.65,13.07-13.25,13.07-22.59V170.93c-14.55,8.42-29.1,16.84-43.65,25.27
			L362.21,196.14z"/>
	</g>
</g>
</svg>
